M48
;DRILL file {KiCad 4.0.7} date 01/30/18 16:26:32
;FORMAT={-:-/ absolute / inch / decimal}
FMAT,2
INCH,TZ
T1C0.020
T2C0.025
T3C0.039
T4C0.118
%
G90
G05
M72
T1
X6.6979Y-4.0128
X6.8205Y-4.017
T2
X4.435Y-3.544
X4.926Y-3.521
X5.064Y-4.264
X5.234Y-3.386
X5.326Y-4.006
X5.333Y-3.727
X5.398Y-3.925
X5.399Y-3.741
X5.406Y-3.63
X5.444Y-3.588
X5.458Y-3.485
X5.474Y-3.959
X5.485Y-3.813
X5.489Y-3.628
X5.51Y-4.147
X5.573Y-3.582
X5.577Y-4.167
X5.7Y-3.846
X5.818Y-3.942
X5.862Y-3.857
X5.867Y-3.994
X5.932Y-4.077
X5.962Y-3.992
X5.964Y-3.722
X5.974Y-3.664
X5.998Y-4.09
X6.059Y-4.16
X6.097Y-4.03
X6.128Y-4.256
X6.134Y-3.983
X6.307Y-4.15
X6.377Y-3.543
X6.5856Y-3.9464
X6.5985Y-3.783
X6.7776Y-3.9486
T3
X4.65Y-3.2
X4.65Y-3.3
X4.75Y-3.2
X4.75Y-3.3
X4.85Y-3.2
X4.85Y-3.3
X4.95Y-3.2
X4.95Y-3.3
X5.05Y-3.2
X5.05Y-3.3
X5.15Y-3.2
X5.15Y-3.3
X5.25Y-3.2
X5.25Y-3.3
X5.35Y-3.2
X5.35Y-3.3
X5.45Y-3.2
X5.45Y-3.3
X5.55Y-3.2
X5.55Y-3.3
X5.65Y-3.2
X5.65Y-3.3
X5.75Y-3.2
X5.75Y-3.3
X5.85Y-3.2
X5.85Y-3.3
X5.95Y-3.2
X5.95Y-3.3
X6.05Y-3.2
X6.05Y-3.3
X6.15Y-3.2
X6.15Y-3.3
X6.25Y-3.2
X6.25Y-3.3
X6.35Y-3.2
X6.35Y-3.3
X6.45Y-3.2
X6.45Y-3.3
X6.55Y-3.2
X6.55Y-3.3
X6.7219Y-3.6516
X6.7219Y-3.8484
X6.8281Y-3.9134
T4
X4.492Y-3.753
X4.6101Y-3.568
X4.7282Y-3.753
T3
X6.8281Y-3.5866G85X6.8281Y-3.5866
G05
T0
M30
